# xmcd CD database file
#
# Track frame offsets:
#	150
#	9387
#	23675
#	40497
#	60245
#	85997
#	107735
#	124817
#	137767
#	153885
#	159880
#	177957
#	186537
#	191592
#	206085
#	241852
#	259247
#
# Disc length: 3820 seconds
#
# Revision: 0
# Processed by: cddbd v1.5PL3 Copyright (c) Steve Scherf et al.
# Submitted via: CDex 1.51
#
DISCID=df0eea11
DTITLE=Various Artist - Indies Magazine Vol.1
DYEAR=1995
DGENRE=不明
TTITLE0=GROWING UP/Hi-STANDARD
TTITLE1=運転手!!!!/ロリータ18号
TTITLE2=宇宙人の来襲/あらきなおみ
TTITLE3=滾らせ、生き抜け/EASTERN YOUTH
TTITLE4=雲はちぎれて/桜井秀俊&パイオニア・コンポ
TTITLE5=マイ・スイート・ホームタウン/ホモサピエンス・サピエンス
TTITLE6=STAR TRICK II/THE BEAT GIRL
TTITLE7=荒野のギター/GUITAR WOLF
TTITLE8=HALF MECHANISM/WRENCH
TTITLE9=ELEVEN/FOUL
TTITLE10=NEW START/DOG IN BLANKET
TTITLE11=SHNNY BLUE DEAD FISH/SUGAR PLANT
TTITLE12=MY BEST OUR SIDE II/COKE HEAD HIPSTERS
TTITLE13=HAND/PENGUIN NOISE
TTITLE14=LET ME SINK THE DEEP REDDISH SKY/PEALOUT
TTITLE15=終わり無き戦い/雷矢
TTITLE16=the circus/The JUICE
EXTD=YEAR: 1995
EXTT0=
EXTT1=
EXTT2=
EXTT3=
EXTT4=
EXTT5=
EXTT6=
EXTT7=
EXTT8=
EXTT9=
EXTT10=
EXTT11=
EXTT12=
EXTT13=
EXTT14=
EXTT15=
EXTT16=
PLAYORDER=
